<svg width="105" height="57" viewBox="0 0 105 57" fill="none" xmlns="http://www.w3.org/2000/svg">
<mask id="path-1-inside-1_126_37" fill="white">
<ellipse cx="5.83333" cy="5.85616" rx="5.83333" ry="5.85616"/>
</mask>
<path d="M1.66667 5.85616C1.66667 3.60445 3.49535 1.71233 5.83333 1.71233V21.7123C14.6146 21.7123 21.6667 14.5764 21.6667 5.85616H1.66667ZM5.83333 1.71233C8.17131 1.71233 10 3.60445 10 5.85616H-10C-10 14.5764 -2.94797 21.7123 5.83333 21.7123V1.71233ZM10 5.85616C10 8.10788 8.17131 10 5.83333 10V-10C-2.94797 -10 -10 -2.86409 -10 5.85616H10ZM5.83333 10C3.49535 10 1.66667 8.10788 1.66667 5.85616H21.6667C21.6667 -2.86409 14.6146 -10 5.83333 -10V10Z" fill="black" mask="url(#path-1-inside-1_126_37)"/>
<mask id="path-3-inside-2_126_37" fill="white">
<ellipse cx="29.1666" cy="28.5" rx="5.83333" ry="5.85617"/>
</mask>
<path d="M25 28.5C25 26.2483 26.8287 24.3562 29.1666 24.3562V44.3562C37.9479 44.3562 45 37.2202 45 28.5H25ZM29.1666 24.3562C31.5046 24.3562 33.3333 26.2483 33.3333 28.5H13.3333C13.3333 37.2202 20.3853 44.3562 29.1666 44.3562V24.3562ZM33.3333 28.5C33.3333 30.7517 31.5046 32.6438 29.1666 32.6438V12.6438C20.3853 12.6438 13.3333 19.7797 13.3333 28.5H33.3333ZM29.1666 32.6438C26.8287 32.6438 25 30.7517 25 28.5H45C45 19.7797 37.9479 12.6438 29.1666 12.6438V32.6438Z" fill="black" mask="url(#path-3-inside-2_126_37)"/>
<mask id="path-5-inside-3_126_37" fill="white">
<ellipse cx="52.5" cy="51.1438" rx="5.83333" ry="5.85616"/>
</mask>
<path d="M48.3334 51.1438C48.3334 48.8921 50.162 47 52.5 47V67C61.2813 67 68.3334 59.8641 68.3334 51.1438H48.3334ZM52.5 47C54.838 47 56.6667 48.8921 56.6667 51.1438H36.6667C36.6667 59.8641 43.7187 67 52.5 67V47ZM56.6667 51.1438C56.6667 53.3955 54.838 55.2877 52.5 55.2877V35.2877C43.7187 35.2877 36.6667 42.4236 36.6667 51.1438H56.6667ZM52.5 55.2877C50.162 55.2877 48.3334 53.3955 48.3334 51.1438H68.3334C68.3334 42.4236 61.2813 35.2877 52.5 35.2877V55.2877Z" fill="black" mask="url(#path-5-inside-3_126_37)"/>
<mask id="path-7-inside-4_126_37" fill="white">
<ellipse cx="75.8333" cy="28.5" rx="5.83334" ry="5.85617"/>
</mask>
<path d="M71.6667 28.5C71.6667 26.2483 73.4954 24.3562 75.8333 24.3562V44.3562C84.6146 44.3562 91.6667 37.2203 91.6667 28.5H71.6667ZM75.8333 24.3562C78.1713 24.3562 80 26.2483 80 28.5H60C60 37.2203 67.052 44.3562 75.8333 44.3562V24.3562ZM80 28.5C80 30.7517 78.1713 32.6438 75.8333 32.6438V12.6438C67.052 12.6438 60 19.7797 60 28.5H80ZM75.8333 32.6438C73.4954 32.6438 71.6667 30.7517 71.6667 28.5H91.6667C91.6667 19.7797 84.6146 12.6438 75.8333 12.6438V32.6438Z" fill="black" mask="url(#path-7-inside-4_126_37)"/>
<mask id="path-9-inside-5_126_37" fill="white">
<ellipse cx="99.1666" cy="5.85616" rx="5.83333" ry="5.85616"/>
</mask>
<path d="M95 5.85616C95 3.60445 96.8287 1.71233 99.1666 1.71233V21.7123C107.948 21.7123 115 14.5764 115 5.85616H95ZM99.1666 1.71233C101.505 1.71233 103.333 3.60445 103.333 5.85616H83.3333C83.3333 14.5764 90.3853 21.7123 99.1666 21.7123V1.71233ZM103.333 5.85616C103.333 8.10788 101.505 10 99.1666 10V-10C90.3853 -10 83.3333 -2.86409 83.3333 5.85616H103.333ZM99.1666 10C96.8287 10 95 8.10788 95 5.85616H115C115 -2.86409 107.948 -10 99.1666 -10V10Z" fill="black" mask="url(#path-9-inside-5_126_37)"/>
</svg>
