<svg id="svg" xmlns="http://www.w3.org/2000/svg" xmlns:xlink="http://www.w3.org/1999/xlink" width="400" height="592.2077922077922" viewBox="0, 0, 400,592.2077922077922"><g id="svgg"><path id="path0" d="M130.519 19.340 C 121.232 22.721,57.371 49.250,51.948 51.980 C 40.159 57.916,39.045 64.787,46.798 83.726 C 54.713 103.061,61.684 107.558,75.297 102.111 C 81.900 99.468,81.330 99.358,82.867 103.571 C 83.584 105.536,85.668 111.053,87.499 115.832 L 90.829 124.522 83.760 127.758 C 71.477 133.381,69.089 140.479,74.576 155.055 L 77.723 163.416 70.509 166.343 C 30.494 182.584,2.543 224.769,2.172 269.481 C 1.973 293.531,3.734 300.069,22.334 344.344 L 35.235 375.052 30.695 384.067 C 8.432 428.275,30.281 480.912,76.967 495.543 C 83.813 497.688,90.909 504.867,90.909 509.647 C 90.909 510.055,75.899 510.390,57.553 510.390 C 19.578 510.390,17.187 510.914,8.416 521.161 C -1.028 532.195,-3.967 565.064,3.796 572.827 L 7.592 576.623 200.910 576.623 C 373.775 576.623,394.533 576.409,397.114 574.602 C 399.901 572.649,400.000 571.836,400.000 550.771 L 400.000 528.961 396.114 523.597 C 388.140 512.589,384.196 511.127,360.491 510.390 L 339.610 509.740 344.443 506.735 C 377.202 486.366,367.594 437.074,329.491 430.030 C 318.263 427.954,314.710 429.020,251.906 453.307 C 185.362 479.040,185.638 478.993,170.991 467.020 L 167.307 464.009 171.223 456.251 C 178.076 442.676,181.514 424.250,179.466 412.074 C 178.682 407.412,178.769 405.138,179.749 404.742 C 331.596 343.324,332.163 343.058,330.692 333.864 C 328.461 319.918,326.478 320.387,243.494 354.516 C 203.587 370.928,170.866 384.223,170.779 384.061 C 160.571 364.871,139.564 348.292,119.539 343.620 C 109.702 341.326,111.949 344.241,103.437 322.727 C 82.699 270.310,81.935 265.061,93.141 251.968 C 101.808 241.843,109.526 239.591,112.379 246.356 C 115.934 254.787,132.001 294.959,135.771 304.846 C 140.258 316.611,140.023 316.419,160.636 325.184 C 181.937 334.241,179.308 334.379,208.845 322.657 C 238.418 310.921,235.281 314.460,249.648 276.623 L 252.360 269.481 246.437 255.195 C 243.179 247.338,228.984 212.857,214.892 178.571 C 183.393 101.932,183.043 101.152,178.589 97.649 C 174.228 94.218,166.170 93.879,159.109 96.829 C 153.285 99.263,154.385 100.308,148.784 87.027 C 143.022 73.365,142.937 74.025,150.973 70.130 C 164.019 63.807,165.516 56.893,157.835 38.440 C 149.331 18.010,144.142 14.382,130.519 19.340 M136.828 46.265 C 139.592 52.061,143.308 49.700,108.388 64.336 C 91.989 71.209,76.669 77.634,74.345 78.612 C 70.135 80.385,70.107 80.371,67.577 75.412 L 65.036 70.431 99.076 56.102 C 117.799 48.221,133.447 41.724,133.850 41.665 C 134.254 41.607,135.594 43.676,136.828 46.265 M127.857 94.993 C 133.215 108.378,133.552 107.424,121.708 112.349 C 111.479 116.602,112.120 117.003,106.514 102.841 C 101.678 90.626,101.569 90.931,112.376 86.445 C 123.055 82.013,122.551 81.734,127.857 94.993 M190.143 177.101 C 203.421 209.149,214.286 235.789,214.286 236.301 C 214.286 237.120,150.213 262.862,145.623 263.888 C 144.431 264.154,141.352 258.280,136.301 246.104 C 132.153 236.104,121.209 209.711,111.981 187.453 L 95.204 146.985 130.394 132.745 C 149.749 124.914,165.678 118.579,165.792 118.669 C 165.907 118.758,176.864 145.053,190.143 177.101 M93.493 200.974 C 97.248 210.081,100.553 218.135,100.839 218.872 C 101.125 219.609,97.860 221.817,93.584 223.780 C 76.324 231.702,65.181 248.323,63.997 267.910 C 63.259 280.106,64.921 286.068,79.067 321.996 C 83.409 333.022,86.826 342.105,86.662 342.180 C 86.498 342.255,82.246 343.602,77.214 345.173 C 72.182 346.744,64.631 350.098,60.435 352.625 C 56.238 355.152,52.407 356.764,51.921 356.207 C 49.282 353.182,28.256 299.967,26.612 292.154 C 17.703 249.804,36.383 209.637,74.362 189.476 C 86.851 182.846,85.745 182.182,93.493 200.974 M225.963 264.261 L 228.458 270.081 223.425 281.469 C 219.710 289.874,217.429 293.367,214.715 294.805 C 212.693 295.877,210.745 297.139,210.385 297.610 C 209.511 298.756,183.494 309.091,181.483 309.091 C 169.626 309.091,153.966 296.297,153.903 286.558 C 153.896 285.464,218.585 258.789,221.799 258.560 C 222.718 258.495,224.591 261.060,225.963 264.261 M123.701 370.561 C 179.695 397.973,153.646 484.819,92.568 474.357 C 35.205 464.531,30.160 385.790,85.714 367.395 C 93.459 364.831,115.798 366.693,123.701 370.561 M336.017 457.489 C 344.391 465.863,343.097 481.314,333.504 487.496 C 331.862 488.554,318.098 494.138,302.916 499.905 L 275.312 510.390 197.616 510.390 L 119.921 510.390 115.863 504.739 L 111.805 499.089 118.714 497.542 C 126.559 495.787,141.386 488.896,147.846 484.004 L 152.185 480.717 158.235 485.363 C 168.448 493.205,177.224 496.541,188.961 497.041 L 199.351 497.483 257.792 474.773 C 325.269 448.552,326.753 448.224,336.017 457.489 M376.623 535.065 C 378.688 537.130,379.221 539.394,379.221 546.104 L 379.221 554.545 201.299 554.545 L 23.377 554.545 23.377 546.104 C 23.377 530.845,2.209 532.468,201.299 532.468 C 372.294 532.468,374.052 532.494,376.623 535.065 " stroke="none" fill="#000000" fill-rule="evenodd"></path></g></svg>