<svg id="svg" xmlns="http://www.w3.org/2000/svg" xmlns:xlink="http://www.w3.org/1999/xlink" width="400" height="394.65240641711233" viewBox="0, 0, 400,394.65240641711233"><g id="svgg"><path id="path0" d="M2.406 5.583 L 0.000 6.744 0.000 187.692 L 0.000 368.641 2.724 369.882 C 6.646 371.669,393.354 371.669,397.276 369.882 L 400.000 368.641 400.000 187.701 L 400.000 6.760 397.276 5.519 C 393.514 3.805,5.963 3.868,2.406 5.583 M383.957 91.444 L 383.957 160.428 200.000 160.428 L 16.043 160.428 16.043 91.444 L 16.043 22.460 200.000 22.460 L 383.957 22.460 383.957 91.444 M54.334 234.828 C 55.880 302.790,54.384 297.284,71.314 297.310 C 87.351 297.334,85.744 304.258,87.877 225.936 L 89.167 178.610 98.594 178.610 C 103.779 178.610,108.062 178.971,108.112 179.412 C 108.161 179.853,108.763 205.644,109.449 236.726 L 110.695 293.239 113.220 295.282 C 116.811 298.189,136.738 298.321,139.328 295.455 C 140.823 293.800,144.415 214.486,144.389 183.690 L 144.385 178.610 153.848 178.610 L 163.311 178.610 164.000 206.150 C 164.378 221.297,165.007 246.834,165.396 262.898 C 166.280 299.388,165.328 297.326,181.285 297.326 C 197.907 297.326,196.279 302.854,197.819 241.176 C 198.450 215.882,199.249 191.457,199.594 186.898 L 200.223 178.610 227.756 178.610 L 255.289 178.610 255.978 206.150 C 256.357 221.297,256.985 246.834,257.374 262.898 C 258.258 299.388,257.307 297.326,273.263 297.326 C 289.885 297.326,288.258 302.854,289.797 241.176 C 290.428 215.882,291.228 191.457,291.573 186.898 L 292.201 178.610 301.560 178.610 L 310.920 178.610 311.628 223.797 C 312.559 283.249,313.096 292.775,315.663 295.342 C 319.481 299.160,342.761 297.841,343.343 293.774 C 343.527 292.484,346.477 192.040,346.497 186.364 L 346.524 178.610 365.241 178.610 L 383.957 178.610 383.957 265.775 L 383.957 352.941 200.000 352.941 L 16.043 352.941 16.043 265.775 L 16.043 178.610 34.549 178.610 L 53.055 178.610 54.334 234.828 " stroke="none" fill="#000000" fill-rule="evenodd"></path></g></svg>