<svg id="svg" xmlns="http://www.w3.org/2000/svg" xmlns:xlink="http://www.w3.org/1999/xlink" width="400" height="400" viewBox="0, 0, 400,400"><g id="svgg"><path id="path0" d="M353.333 5.428 C 214.423 14.947,138.325 71.773,137.237 166.798 L 137.012 186.486 131.912 194.576 L 126.812 202.667 101.242 202.667 C 75.237 202.667,72.597 202.958,69.369 206.187 C 66.015 209.541,67.663 216.133,72.255 217.734 C 74.026 218.351,96.113 218.667,137.534 218.667 L 200.137 218.667 202.735 216.068 C 207.032 211.772,205.925 206.233,200.300 203.882 C 197.775 202.827,192.285 202.612,171.260 202.745 C 151.734 202.869,145.391 202.650,145.568 201.861 C 146.128 199.362,150.638 193.715,152.350 193.368 C 153.380 193.160,158.822 192.358,164.444 191.587 C 271.765 176.869,361.445 115.937,388.858 39.111 C 396.134 18.721,397.398 10.594,393.846 7.043 L 391.248 4.444 377.624 4.571 C 370.131 4.640,359.200 5.026,353.333 5.428 M376.428 26.889 C 368.354 52.273,353.887 76.027,333.996 96.560 L 324.411 106.455 317.094 107.672 C 304.193 109.818,279.890 109.196,266.470 106.376 C 250.501 103.021,247.111 103.826,247.111 110.978 C 247.111 118.853,263.044 123.882,290.396 124.638 C 300.916 124.929,300.938 124.779,289.316 131.817 C 258.051 150.749,212.122 167.878,175.556 174.241 C 169.689 175.262,164.131 176.321,163.204 176.594 C 161.215 177.180,166.170 170.451,177.712 156.889 C 224.019 102.479,277.969 65.564,341.333 44.929 C 352.684 41.233,354.667 39.702,354.667 34.633 C 354.667 26.925,349.097 25.943,334.181 31.021 C 265.853 54.279,208.526 94.399,162.900 150.889 C 157.273 157.856,152.459 163.556,152.202 163.556 C 151.392 163.556,152.787 148.158,154.209 141.395 C 169.769 67.424,250.209 22.367,369.906 20.573 L 378.478 20.444 376.428 26.889 M54.222 226.676 C 35.380 228.986,19.865 243.056,15.525 261.770 C 13.125 272.121,14.021 348.805,16.623 355.708 C 21.640 369.018,31.798 379.172,45.239 384.312 C 51.144 386.569,210.498 387.880,221.778 385.763 C 238.031 382.714,252.542 369.238,257.040 353.017 C 259.842 342.912,259.486 267.536,256.593 258.426 C 252.022 244.031,241.213 233.117,226.667 228.209 C 220.561 226.148,69.483 224.806,54.222 226.676 M226.252 244.584 C 242.607 253.218,243.788 257.676,243.401 309.333 L 243.111 348.000 240.525 353.600 C 237.365 360.443,231.291 366.190,224.179 369.063 L 219.111 371.111 136.444 371.111 L 53.778 371.111 48.447 368.965 C 41.501 366.169,34.709 359.331,31.857 352.264 C 29.782 347.122,29.778 347.027,29.778 306.222 L 29.778 265.333 32.288 259.902 C 35.542 252.861,41.749 246.768,48.512 243.975 L 53.778 241.801 137.778 242.012 L 221.778 242.222 226.252 244.584 " stroke="none" fill="#000000" fill-rule="evenodd"></path></g></svg>